<?xml version="1.0" standalone="no"?><!-- Generator: Gravit.io --><svg xmlns="http://www.w3.org/2000/svg" xmlns:xlink="http://www.w3.org/1999/xlink" style="isolation:isolate" viewBox="0 0 67 67" width="67" height="67"><defs><clipPath id="_clipPath_C9tGrxo26RuxXNQ3DFPAJfxkq8zFzVf9"><rect width="67" height="67"/></clipPath></defs><g clip-path="url(#_clipPath_C9tGrxo26RuxXNQ3DFPAJfxkq8zFzVf9)"><path d=" M 66.638 46.212 C 66.037 44.692 64.667 43.327 62.694 42.803 C 62.556 41.43 61.904 40.143 60.806 39.205 C 59.098 37.733 56.637 37.339 54.012 38.137 L 53.765 38.224 C 53.398 37.175 52.712 36.246 51.756 35.563 C 50.061 34.342 47.8 34.069 45.361 34.808 L 32.09 39.373 C 28.695 37.8 25.478 36.326 21.42 36.326 C 16.202 36.326 9.594 39.538 0.629 44.721 C 0.027 45.069 -0.178 45.838 0.169 46.439 C 0.517 47.041 1.286 47.246 1.887 46.898 C 10.254 42.062 16.78 38.845 21.42 38.845 C 24.966 38.845 27.824 40.171 31.133 41.697 C 33.807 42.938 36.846 44.344 40.759 45.31 C 43.081 45.878 43.991 47.703 43.711 49.229 C 43.437 50.668 41.995 52.041 38.78 51.601 C 36.123 51.233 34.155 51.161 32.425 51.094 C 29.658 50.994 27.474 50.914 23.575 49.725 C 22.916 49.523 22.207 49.896 22.005 50.561 C 21.802 51.224 22.176 51.928 22.841 52.13 C 27.052 53.415 29.498 53.505 32.327 53.608 C 34.092 53.671 35.903 53.737 38.428 54.089 C 38.949 54.161 39.443 54.195 39.913 54.194 C 43.564 54.194 45.653 52.124 46.15 49.821 L 59.066 45.373 C 61.862 44.522 63.696 45.641 64.289 47.137 C 64.802 48.44 64.443 50.435 61.721 51.767 L 57.658 53.767 C 42.931 61.016 36.206 64.331 32.484 64.331 C 29.575 64.331 25.089 61.826 21.48 59.812 C 17.69 57.697 15.461 56.509 13.91 56.722 C 11.697 57.034 6.317 59.437 5.717 59.709 C 5.081 59.995 4.793 60.74 5.086 61.369 C 5.373 62.006 6.116 62.288 6.745 62 C 8.3 61.298 12.689 59.432 14.267 59.21 C 15.036 59.088 18.064 60.768 20.259 61.994 C 24.321 64.261 28.926 66.833 32.488 66.833 C 36.803 66.833 43.232 63.666 58.778 56.011 L 62.84 54.016 C 66.8 52.082 67.583 48.613 66.638 46.212 Z  M 40.75 42.7 C 38.776 42.179 37.047 41.549 35.456 40.877 L 46.148 37.199 C 47.773 36.698 49.24 36.85 50.299 37.601 C 50.81 37.972 51.182 38.477 51.377 39.039 L 40.75 42.7 Z  M 58.298 42.983 L 46.058 47.194 C 45.761 46.089 45.097 45.034 44.09 44.206 L 54.777 40.529 C 56.511 40.002 58.112 40.213 59.155 41.11 C 59.627 41.512 59.952 42.037 60.102 42.619 C 59.536 42.679 58.935 42.791 58.298 42.983 Z " fill="rgb(0,0,0)"/><path d=" M 35.471 10.405 C 36.185 10.405 36.765 9.825 36.765 9.11 L 36.765 1.557 C 36.765 0.843 36.185 0.263 35.471 0.263 C 34.756 0.263 34.176 0.843 34.176 1.557 L 34.176 9.11 C 34.176 9.825 34.756 10.405 35.471 10.405 Z  M 40.736 9.434 C 41.451 9.434 42.031 8.854 42.031 8.139 L 42.031 4.626 C 42.031 3.911 41.451 3.331 40.736 3.331 C 40.021 3.331 39.441 3.911 39.441 4.626 L 39.441 8.139 C 39.441 8.854 40.02 9.434 40.736 9.434 Z  M 33.333 32.324 C 37.653 32.324 41.167 28.81 41.167 24.49 C 41.167 24.311 41.151 24.135 41.14 23.959 C 43.919 23.373 46.012 20.902 46.012 17.951 C 46.012 14.564 43.258 11.81 39.873 11.81 C 36.921 11.81 34.451 13.904 33.864 16.683 C 33.688 16.671 33.513 16.656 33.334 16.656 C 29.014 16.656 25.5 20.17 25.5 24.49 C 25.5 28.81 29.013 32.324 33.333 32.324 Z  M 39.873 14.398 C 41.831 14.398 43.423 15.992 43.423 17.95 C 43.423 19.677 42.182 21.117 40.546 21.433 C 39.752 19.567 38.255 18.07 36.389 17.277 C 36.705 15.64 38.145 14.398 39.873 14.398 Z  M 33.333 19.245 C 36.225 19.245 38.577 21.598 38.577 24.489 C 38.577 27.381 36.224 29.734 33.333 29.734 C 30.441 29.734 28.088 27.381 28.088 24.489 C 28.088 21.598 30.441 19.245 33.333 19.245 Z  M 30.205 14.247 C 30.919 14.247 31.499 13.666 31.499 12.952 L 31.499 6.809 C 31.499 6.094 30.919 5.514 30.205 5.514 C 29.49 5.514 28.91 6.094 28.91 6.809 L 28.91 12.952 C 28.91 13.666 29.49 14.247 30.205 14.247 Z " fill="rgb(0,0,0)"/></g></svg>