<?xml version="1.0" standalone="no"?><!-- Generator: Gravit.io --><svg xmlns="http://www.w3.org/2000/svg" xmlns:xlink="http://www.w3.org/1999/xlink" style="isolation:isolate" viewBox="0 0 67 67" width="67" height="67"><defs><clipPath id="_clipPath_lCw5woAjaFTND5n9CwKBVr8NGKibFQxh"><rect width="67" height="67"/></clipPath></defs><g clip-path="url(#_clipPath_lCw5woAjaFTND5n9CwKBVr8NGKibFQxh)"><g id="Group"><path d=" M 34.704 16.579 C 38.174 16.579 40.997 13.757 40.997 10.286 C 40.997 10.142 40.985 10.001 40.976 9.859 C 43.208 9.388 44.89 7.404 44.89 5.033 C 44.89 2.313 42.677 0.1 39.958 0.1 C 37.586 0.1 35.602 1.782 35.131 4.015 C 34.99 4.005 34.849 3.993 34.705 3.993 C 31.234 3.993 28.412 6.816 28.412 10.286 C 28.412 13.757 31.234 16.579 34.704 16.579 Z  M 39.958 2.179 C 41.531 2.179 42.81 3.459 42.81 5.033 C 42.81 6.42 41.812 7.577 40.499 7.83 C 39.861 6.331 38.658 5.129 37.159 4.492 C 37.413 3.176 38.57 2.179 39.958 2.179 Z  M 34.704 6.073 C 37.027 6.073 38.917 7.963 38.917 10.286 C 38.917 12.608 37.027 14.499 34.704 14.499 C 32.381 14.499 30.491 12.608 30.491 10.286 C 30.491 7.963 32.381 6.073 34.704 6.073 Z " fill="rgb(0,0,0)"/><path d=" M 66.749 33.348 C 66.38 32.013 65.307 30.91 63.843 30.303 C 64.109 30.144 64.408 29.999 64.747 29.874 C 65.523 29.586 65.921 28.724 65.634 27.946 C 65.346 27.169 64.485 26.772 63.706 27.059 C 62.109 27.65 60.823 28.647 59.965 29.908 C 58.694 30.135 57.459 30.705 56.344 31.571 C 52.184 23.988 43.104 18.714 32.59 18.714 C 29.042 18.714 25.611 19.302 22.378 20.464 C 19.307 18.039 14.994 17.451 10.211 18.833 C 9.699 18.981 9.304 19.39 9.173 19.905 C 9.042 20.422 9.195 20.969 9.574 21.343 C 11.205 22.948 12.121 24.595 12.481 26.597 C 9.9 28.872 8.921 31.046 8.191 32.667 C 7.753 33.642 7.407 34.411 6.871 34.876 C 6.818 34.908 6.616 34.983 5.885 34.983 L 4.865 34.971 C 3.833 34.971 2.654 35.075 1.727 35.837 C -0.452 37.632 -0.497 44.527 1.185 46.606 C 1.504 47.002 2.423 48.137 6.587 48.321 C 6.245 48.716 5.788 49.052 5.273 49.26 C 4.903 49.409 4.607 49.699 4.452 50.068 C 4.297 50.435 4.295 50.849 4.445 51.219 C 4.593 51.583 6.044 54.685 12.278 54.896 C 13.097 55.763 14.801 57.421 16.901 58.649 C 16.885 60.778 17.087 64.252 18.455 65.621 C 19.758 66.925 22.268 67.065 23.287 67.065 C 24.567 67.065 26.88 66.862 27.977 65.502 C 28.475 64.885 28.84 63.775 29.081 62.813 C 32.525 63.205 35.983 63.017 39.295 62.275 C 39.511 63.541 39.902 64.911 40.612 65.621 C 41.951 66.96 44.675 67.064 45.477 67.064 C 45.478 67.064 45.478 67.064 45.478 67.064 C 46.746 67.064 49.036 66.861 50.134 65.502 C 51.697 63.568 51.692 58.483 51.595 56.1 C 56.226 51.971 58.766 46.587 58.766 40.864 C 58.766 38.628 58.369 36.468 57.637 34.432 C 58.002 34.08 58.38 33.763 58.781 33.523 C 58.719 35.357 59.452 36.982 60.759 37.846 C 61.407 38.274 62.176 38.487 62.948 38.487 C 63.802 38.487 64.662 38.227 65.371 37.713 C 66.719 36.735 67.233 35.103 66.749 33.348 Z  M 49.099 54.296 C 48.735 54.602 48.537 55.062 48.566 55.536 C 48.757 58.745 48.497 62.76 47.814 63.605 C 47.665 63.75 46.87 64.065 45.48 64.065 C 43.953 64.065 42.938 63.697 42.764 63.533 C 42.508 63.184 42.179 61.637 42.075 60.287 C 42.041 59.838 41.806 59.429 41.436 59.171 C 41.068 58.914 40.601 58.838 40.167 58.96 C 36.318 60.063 32.188 60.31 28.143 59.657 C 27.329 59.528 26.57 60.071 26.427 60.88 C 26.228 62.018 25.851 63.327 25.658 63.602 C 25.503 63.749 24.691 64.067 23.287 64.067 C 21.77 64.067 20.773 63.699 20.583 63.509 C 20.143 62.99 19.827 60.281 19.921 57.824 C 19.943 57.235 19.617 56.685 19.089 56.424 C 16.487 55.134 14.327 52.704 14.09 52.432 C 13.805 52.105 13.385 51.909 12.951 51.909 C 10.496 51.909 9.042 51.406 8.213 50.93 C 9.45 49.851 10.223 48.345 10.223 46.829 C 10.223 46.419 10.054 46.026 9.757 45.743 C 9.46 45.459 9.058 45.319 8.649 45.331 C 8.631 45.332 8.291 45.348 7.778 45.348 C 5.171 45.348 3.771 44.953 3.518 44.722 C 2.769 43.791 2.87 38.992 3.635 38.156 C 3.781 38.036 4.195 37.974 4.865 37.974 L 5.885 37.986 C 6.912 37.986 7.98 37.885 8.823 37.157 C 9.872 36.249 10.385 35.108 10.928 33.901 C 11.667 32.259 12.505 30.398 15.037 28.37 C 15.503 27.997 15.684 27.402 15.552 26.854 C 15.298 24.747 14.601 22.907 13.401 21.212 C 16.448 20.797 18.999 21.444 20.864 23.109 C 21.263 23.629 21.969 23.836 22.603 23.587 C 25.739 22.346 29.099 21.716 32.59 21.716 C 45.37 21.716 55.768 30.307 55.768 40.866 C 55.768 45.918 53.399 50.688 49.099 54.296 Z  M 63.608 35.286 C 63.266 35.535 62.743 35.561 62.414 35.345 C 61.952 35.039 61.7 34.212 61.802 33.334 C 61.816 33.22 61.842 33.053 61.894 32.851 C 61.958 32.862 62.023 32.873 62.087 32.887 C 63.125 33.111 63.733 33.698 63.857 34.148 C 64.077 34.946 63.725 35.202 63.608 35.286 Z  M 39.542 25.043 C 37.413 24.445 35.139 24.131 32.786 24.108 C 30.412 24.083 28.152 24.353 26.011 24.911 C 25.209 25.12 24.728 25.938 24.936 26.74 C 25.145 27.543 25.965 28.017 26.765 27.815 C 28.652 27.325 30.654 27.091 32.757 27.108 C 34.847 27.128 36.857 27.405 38.732 27.931 C 38.868 27.969 39.003 27.987 39.138 27.987 C 39.793 27.987 40.395 27.554 40.581 26.892 C 40.805 26.095 40.34 25.267 39.542 25.043 Z " fill="rgb(0,0,0)"/></g></g></svg>