<?xml version="1.0" standalone="no"?><!-- Generator: Gravit.io --><svg xmlns="http://www.w3.org/2000/svg" xmlns:xlink="http://www.w3.org/1999/xlink" style="isolation:isolate" viewBox="0 0 67 41" width="67" height="41"><defs><clipPath id="_clipPath_vbXq7xzsk0i9XwnHdjHc7eoUBMCMO2ll"><rect width="67" height="41"/></clipPath></defs><g clip-path="url(#_clipPath_vbXq7xzsk0i9XwnHdjHc7eoUBMCMO2ll)"><clipPath id="_clipPath_gUDQ1lyvJXKYTybzCnKwuSSw2EDPqNRL"><rect x="0" y="0" width="67" height="41" transform="matrix(1,0,0,1,0,0)" fill="rgb(255,255,255)"/></clipPath><g clip-path="url(#_clipPath_gUDQ1lyvJXKYTybzCnKwuSSw2EDPqNRL)"><g id="Group"><g id="Group"><path d=" M 47.049 18.735 C 46.89 18.259 46.448 17.939 45.95 17.939 L 34.753 17.939 C 34.381 17.939 34.031 18.119 33.814 18.422 C 33.596 18.726 33.537 19.117 33.655 19.472 L 36.013 26.59 C 36.171 27.066 36.613 27.386 37.112 27.386 L 48.309 27.386 C 48.681 27.386 49.031 27.206 49.248 26.902 C 49.466 26.599 49.525 26.207 49.407 25.852 L 47.049 18.735 Z  M 37.946 25.055 L 36.36 20.269 L 45.115 20.269 L 46.701 25.055 L 37.946 25.055 Z " fill="rgb(0,0,0)"/><path d=" M 66.112 33.974 C 65.412 33.66 64.592 33.975 64.279 34.678 L 63.056 37.428 L 52.321 7.366 L 54.608 2.231 C 54.921 1.527 54.608 0.702 53.909 0.387 C 53.209 0.073 52.389 0.387 52.076 1.091 L 50.752 4.067 L 49.391 1.012 C 49.079 0.309 48.257 -0.005 47.559 0.31 C 46.86 0.625 46.547 1.451 46.861 2.154 L 48.618 6.101 L 22.247 6.101 L 23.379 3.561 C 23.727 2.78 23.38 1.863 22.603 1.512 C 21.826 1.161 20.916 1.511 20.566 2.293 L 19.259 5.226 L 17.955 2.295 C 17.609 1.513 16.696 1.163 15.92 1.511 C 15.143 1.86 14.794 2.778 15.141 3.559 L 17.506 8.876 L 11.849 21.86 L 4.407 38.539 L 2.652 34.599 C 2.339 33.896 1.518 33.58 0.82 33.897 C 0.121 34.212 -0.192 35.038 0.122 35.741 L 2.409 40.876 L 64.558 40.876 L 66.811 35.819 C 67.124 35.115 66.811 34.289 66.112 33.974 Z  M 4.495 38.737 L 4.461 38.662 C 4.539 38.531 4.593 38.461 4.593 38.512 L 4.495 38.737 Z  M 17.101 38.389 L 19.663 31.613 L 21.961 38.375 L 17.101 38.389 Z  M 24.814 38.367 L 21.009 27.173 C 20.825 26.631 20.323 26.263 19.754 26.254 C 19.21 26.232 18.671 26.594 18.469 27.129 L 14.207 38.398 L 8.001 38.416 L 14.654 23.146 L 19.257 12.812 L 30.617 38.35 L 24.814 38.367 Z  M 38.54 38.327 L 39.691 35.74 C 40.005 35.037 39.692 34.211 38.993 33.896 C 38.294 33.58 37.473 33.895 37.16 34.598 L 35.496 38.335 L 33.981 38.339 C 33.972 38.316 33.968 38.291 33.957 38.268 L 21.027 9.2 L 48.986 9.2 C 49.12 9.494 49.35 9.745 49.666 9.891 C 49.769 9.938 49.875 9.969 49.982 9.989 L 60.08 38.264 L 38.54 38.327 Z " fill="rgb(0,0,0)"/></g></g></g></g></svg>